PathFileType	4	(X/Y/Z)	C:\Users\Basilio\Documents\Thesis Gigler\squatting_fais\c3dfiles\019\SLS_back_pre1\markers_experimental.trc
DataRate	CameraRate	NumFrames	NumMarkers	Units	OrigDataRate	OrigDataStartFrame	OrigNumFrames
200.000000	200.000000	4	59	mm	200.000000	901	1442
Frame#	Time	LBHD			RBHD			C7			T10			CLAV			LSHO			LUUPA			LMUPA			LDUPA			LLEP			LMEP			LRAD			LUL			LRFIN			RSHO			RUPA1			RMUPA			RDUPA			RLEP			RMEP			RRAD			RUL			RUFIN			LASI			RASI			USACR			LSACR			RSACR			LTHI1			LTHI2			LTHI3			LTHI4			LLFC			LTIB1			LTIB2			LTIB3			LTIB4			LLMAL			LMMAL			LHEE			LMT1			LMT2			LMT5			RTHI2			RTHI4			RLFC			RTIB1			RTIB2			RTIB3			RTIB4			RLMAL			RMMAL			RHEE			RMT1			RMT2			RMT5			FHD			RTHI			RTHI3			
		X1	Y1	Z1	X2	Y2	Z2	X3	Y3	Z3	X4	Y4	Z4	X5	Y5	Z5	X6	Y6	Z6	X7	Y7	Z7	X8	Y8	Z8	X9	Y9	Z9	X10	Y10	Z10	X11	Y11	Z11	X12	Y12	Z12	X13	Y13	Z13	X14	Y14	Z14	X15	Y15	Z15	X16	Y16	Z16	X17	Y17	Z17	X18	Y18	Z18	X19	Y19	Z19	X20	Y20	Z20	X21	Y21	Z21	X22	Y22	Z22	X23	Y23	Z23	X24	Y24	Z24	X25	Y25	Z25	X26	Y26	Z26	X27	Y27	Z27	X28	Y28	Z28	X29	Y29	Z29	X30	Y30	Z30	X31	Y31	Z31	X32	Y32	Z32	X33	Y33	Z33	X34	Y34	Z34	X35	Y35	Z35	X36	Y36	Z36	X37	Y37	Z37	X38	Y38	Z38	X39	Y39	Z39	X40	Y40	Z40	X41	Y41	Z41	X42	Y42	Z42	X43	Y43	Z43	X44	Y44	Z44	X45	Y45	Z45	X46	Y46	Z46	X47	Y47	Z47	X48	Y48	Z48	X49	Y49	Z49	X50	Y50	Z50	X51	Y51	Z51	X52	Y52	Z52	X53	Y53	Z53	X54	Y54	Z54	X55	Y55	Z55	X56	Y56	Z56	X57	Y57	Z57	X58	Y58	Z58	X59	Y59	Z59	

902	4.505	-101.7001953125	1217.866088867188	-773.737731933594	-108.1132125854492	1213.04443359375	-634.0320434570314	-173.2153625488282	1090.825439453125	-693.9036865234376	-371.0473937988282	893.6401977539065	-704.0435791015626	-57.57424545288087	988.7064208984377	-700.2887573242189	-91.4176712036133	1072.906372070313	-819.770935058594	21.45199775695801	1036.484497070313	-875.1025390625002	44.93016815185548	1023.852844238281	-834.3892211914065	86.29857635498048	1026.371459960938	-878.8662109375002	154.9242553710938	988.6871337890627	-911.0627441406252	146.8216247558594	931.2745361328127	-898.706726074219	394.3174438476564	994.8291015625002	-829.7658691406252	402.6225585937501	954.0013427734377	-881.1131591796877	467.395233154297	1014.031188964844	-831.9355468750002	-84.18872833251955	1068.83056640625	-594.8957519531251	21.33895874023438	1010.050964355469	-484.4905090332032	48.54964828491212	1033.394653320313	-519.9625854492189	154.7954406738282	932.2205810546877	-511.4589233398439	167.1199951171875	988.211120605469	-501.3565979003907	89.99971008300783	996.7388305664065	-486.5808105468751	402.2237548828126	1022.754638671875	-585.1727905273439	420.6587219238282	981.7461547851565	-532.0438842773439	488.1242675781251	1036.419067382813	-576.3911743164064	-399.8924255371095	650.4736938476564	-837.042663574219	-363.7913208007813	656.2464599609376	-639.2777709960939	-470.6068115234376	787.1228027343752	-716.5143432617189	-499.168670654297	766.5711059570314	-741.8421630859376	-492.7305908203126	761.4874877929689	-685.2175903320314	-523.7192382812501	440.3225708007814	-940.007751464844	-493.119598388672	361.7267456054688	-959.1356201171877	-448.056610107422	354.7585144042969	-944.3234863281252	-524.4294433593751	309.2663269042969	-957.4139404296877	-545.9680175781251	232.7117309570313	-957.101501464844	-667.8411254882814	173.2400054931641	-918.8942871093752	-704.1213378906251	234.9279174804688	-975.4339599609377	-712.6004638671876	199.7642059326172	-949.6599731445315	-788.378601074219	217.9127807617188	-913.3416748046877	-904.7449340820315	309.3702392578126	-932.714782714844	-891.580017089844	292.1318969726563	-848.8357543945315	-928.3590087890627	378.0045471191407	-880.2816162109377	-985.4949951171877	170.135482788086	-854.7294921875002	-993.7108154296877	171.8406219482422	-893.2593994140627	-1013.946533203125	218.6583709716797	-942.2674560546877	-306.5200195312501	562.0507202148439	-569.1585693359376	-249.6595001220704	502.4521484375001	-573.1947021484376	-149.4060516357422	399.0334472656251	-627.0272216796876	-186.1117858886719	253.3671875000001	-713.2152709960939	-270.3410949707032	205.9703826904297	-656.4409179687501	-244.8214263916016	188.3831481933594	-697.0226440429689	-282.3555603027344	174.8802185058594	-740.7398071289064	-376.0858764648438	123.1083908081055	-692.3745727539064	-362.8069152832032	137.8797912597657	-771.033874511719	-458.7753906250001	108.474853515625	-751.0346069335939	-258.1413269042969	59.41253662109376	-782.698181152344	-253.1081542968751	57.6488494873047	-737.0783691406251	-293.2157592773438	45.31209182739259	-682.6264648437501	28.96205520629884	1226.033325195313	-628.5335083007814	-369.2916259765626	555.0126953125001	-552.8135375976564	-299.1156311035157	591.7924194335939	-589.5324096679689	
903	4.51	-101.7778472900391	1217.694091796875	-773.6264648437502	-108.2074508666992	1213.071166992188	-633.9552001953126	-173.2386474609375	1090.7138671875	-693.8714599609376	-371.0869750976563	893.5380859375002	-704.0721435546876	-57.64354705810548	988.5623168945315	-700.1893310546876	-91.3656692504883	1072.696655273438	-819.677917480469	21.44754791259766	1036.380615234375	-874.9738769531252	45.06955337524415	1023.766174316406	-834.1888427734377	86.28631591796876	1026.349487304688	-878.7940673828127	154.8948822021485	988.7093505859377	-910.9868164062502	146.9768829345703	931.3231201171877	-898.5682373046877	394.2983703613282	995.1273193359377	-829.7652587890627	402.711639404297	954.2963867187502	-881.0941162109377	467.5397949218751	1014.258544921875	-831.9283447265627	-84.29264068603517	1068.809692382813	-594.8848266601564	21.21456146240235	1010.164672851563	-484.4302978515626	48.48650360107423	1033.520385742188	-519.9177246093751	154.780746459961	932.4481201171877	-511.3498535156251	167.120101928711	988.556823730469	-501.3304748535157	89.86042785644533	996.8243408203127	-486.4992065429689	402.1886291503907	1023.08740234375	-584.9878540039064	420.5900878906251	982.1215820312502	-531.8579711914064	485.6192932128907	1038.751831054688	-576.8662719726564	-399.848114013672	650.3505249023439	-837.0479736328127	-363.9132995605469	656.0498657226564	-639.2675781250001	-470.669647216797	787.0120849609377	-716.6030273437501	-499.4200134277345	766.5728149414064	-741.9102783203126	-492.8142700195314	761.3677368164064	-685.2944946289064	-523.6336059570314	440.191131591797	-940.033630371094	-492.9367065429689	361.5809326171876	-959.1981201171877	-447.9171142578126	354.7172241210938	-944.4145507812502	-524.3154296875001	309.1970825195313	-957.4776000976565	-545.7778320312501	232.605941772461	-957.1885375976565	-667.4716186523439	172.9182281494141	-918.8187255859377	-703.8980102539064	234.588607788086	-975.264831542969	-712.3922119140626	199.5101623535157	-949.672546386719	-788.0342407226565	217.3992004394532	-913.1195068359377	-904.597106933594	308.8409423828126	-932.460144042969	-891.2875976562502	291.4050598144532	-848.5272216796877	-928.2331542968752	377.3736572265626	-879.8854980468752	-985.1704101562502	169.3051452636719	-854.347351074219	-993.1958007812502	171.1047515869141	-892.983337402344	-1013.577697753906	217.9874572753907	-941.7778320312502	-306.7003784179688	562.0717163085939	-569.0261840820314	-249.777572631836	502.5024719238282	-573.0845336914064	-149.4874877929688	399.1472473144532	-626.8515625000001	-186.1152496337891	253.4161224365235	-712.9427490234376	-270.3289489746094	206.0713653564454	-656.2216186523439	-244.7814025878907	188.473617553711	-696.8571777343751	-282.2780151367188	174.9371795654297	-740.5518798828126	-375.9643859863282	122.9923477172852	-692.1692504882814	-362.8824768066407	138.0238342285157	-770.9851684570315	-458.7544860839845	108.6665267944336	-750.9860839843751	-258.1811218261719	59.44470977783205	-782.6018676757815	-253.1123657226563	57.66229248046876	-736.9356079101564	-293.1754150390626	45.17187881469727	-682.5815429687501	28.84363174438477	1225.971313476563	-628.4812622070314	-369.4697570800782	555.0408935546876	-552.6823730468751	-298.7908935546876	592.3345336914064	-589.2221679687501	
904	4.515	-102.1832580566407	1217.630981445313	-773.6450195312502	-108.368148803711	1212.902954101563	-633.9920043945314	-173.3743133544922	1090.632690429688	-693.7807617187501	-371.0626220703126	893.4248657226565	-704.0988159179689	-57.70967102050783	988.457458496094	-700.0181274414064	-91.39517974853517	1072.489135742188	-819.567321777344	21.40321922302246	1036.336791992188	-874.865661621094	45.0620460510254	1023.724365234375	-834.102966308594	86.30879974365236	1026.331909179688	-878.6722412109377	154.9899444580078	988.7693481445315	-910.8858032226565	147.0562896728516	931.367370605469	-898.557556152344	394.241180419922	995.5449218750002	-829.8167114257815	402.7405090332032	954.5881347656252	-881.1087646484377	467.6845092773439	1014.674133300781	-831.8298950195315	-84.46884918212892	1068.85546875	-594.8316650390626	21.14020729064942	1010.304748535156	-484.3198242187501	48.46763610839845	1033.666137695313	-519.7931518554689	154.6808776855469	932.553649902344	-511.3767395019532	167.0621337890625	988.9768066406252	-501.2885131835939	89.79576110839845	997.0030517578127	-486.4239501953126	402.1471252441407	1023.387939453125	-584.7429199218751	420.4498596191407	982.4033203125002	-531.7475585937501	486.587371826172	1038.7099609375	-576.9266967773439	-399.8152465820314	650.2738037109376	-836.9117431640627	-364.0132141113282	656.0817871093751	-639.1607055664064	-470.6477050781251	786.9777832031252	-716.6429443359376	-499.5246582031251	766.5105590820314	-741.9743041992189	-492.807342529297	761.3610229492189	-685.2658081054689	-523.5456542968751	440.1055297851564	-940.0950317382815	-492.7410583496095	361.5117187500001	-959.2590332031252	-447.6963500976564	354.7246704101563	-944.4761962890627	-523.9154052734376	309.0365600585938	-957.3875122070315	-545.5416259765626	232.4629821777344	-957.205749511719	-667.0966186523439	172.6169128417969	-918.8142700195315	-703.6538696289064	234.2963256835938	-975.1567993164065	-712.0133056640626	199.1244812011719	-949.5959472656252	-787.7749023437502	216.9677734375001	-912.953796386719	-904.5327148437502	308.4516601562501	-932.1820068359377	-891.001647949219	290.8332824707032	-848.1949462890627	-928.0952758789065	376.7664794921876	-879.4783325195315	-984.782653808594	168.8919219970703	-853.3553466796877	-992.852722167969	170.5720520019532	-892.5354003906252	-1013.599548339844	217.447494506836	-941.8011474609377	-306.7646789550782	562.1090698242189	-569.0063476562501	-249.8347473144532	502.5034179687501	-572.9427490234376	-149.5362854003907	399.1891479492189	-626.6670532226564	-186.1490783691407	253.5225219726563	-712.7111816406251	-270.4057312011719	206.1424407958985	-656.0773315429689	-244.876449584961	188.4703826904297	-696.7078247070314	-282.2472229003907	174.9914093017578	-740.3511962890626	-375.8185729980469	122.8770446777344	-692.1452636718751	-362.7663269042969	138.0323638916016	-770.983581542969	-460.8633422851564	109.978515625	-750.5716552734376	-258.1208496093751	59.50291061401369	-782.5377197265627	-253.1092224121094	57.65198898315431	-736.9017333984376	-293.0654602050782	45.11571121215821	-682.5140991210939	28.71212577819825	1226.006225585938	-628.4337158203126	-369.6052551269532	555.1218872070314	-552.6585083007814	-299.1463928222657	592.3123168945314	-589.1549072265626	
905	4.52	-102.1910476684571	1217.5283203125	-773.5335083007815	-108.497543334961	1212.887817382813	-633.9300537109376	-173.3927001953125	1090.530517578125	-693.8038330078126	-371.1468200683594	893.408386230469	-704.1695556640626	-57.61085128784181	988.3938598632815	-699.8555297851564	-91.5200653076172	1072.380126953125	-819.4355468750002	21.39982604980469	1036.265869140625	-874.7488403320315	45.05125808715821	1023.677734375	-833.9942626953127	86.29774475097658	1026.366088867188	-878.5447387695315	154.9622955322266	988.8701171875002	-910.8106079101565	147.093017578125	931.473815917969	-898.4447021484377	394.2258300781251	996.0357666015627	-829.865661621094	402.773162841797	954.982116699219	-881.0773925781252	467.6383666992189	1015.163024902344	-831.8518676757815	-84.5789031982422	1068.884765625	-594.8156738281251	20.94902992248536	1010.532836914063	-484.2240600585939	48.30613708496095	1033.820922851563	-519.7384033203126	154.6319580078125	932.9270629882815	-511.0070800781251	166.9457397460938	989.6041259765627	-501.2686157226564	89.64285278320314	997.278259277344	-486.4974060058595	401.8743591308595	1023.829772949219	-584.6767578125001	420.3571777343751	982.858337402344	-531.6965942382814	487.4311828613282	1038.832397460938	-576.2349853515626	-399.8346252441407	650.1947631835939	-836.8994140625002	-364.1499328613282	656.0875244140626	-639.1837158203126	-470.6669921875001	786.8988037109377	-716.7393798828126	-499.3750000000001	766.3427124023439	-742.0414428710939	-492.8892822265626	761.3033447265626	-685.3120727539064	-523.3732299804689	440.0423889160157	-940.1135864257815	-492.5619506835939	361.5166931152344	-959.318786621094	-447.4981384277345	354.7350769042969	-944.5330810546877	-523.7246093750001	308.9828796386719	-957.4343872070315	-545.1724853515626	232.3469543457032	-957.2612304687502	-666.6242065429689	172.4452209472657	-918.5042724609377	-703.4071044921876	234.0793151855469	-974.9927368164065	-711.5991210937501	198.8162994384766	-949.5256958007815	-787.2770996093752	216.4516754150391	-912.6851196289065	-904.2439575195315	307.8653564453126	-931.7957153320315	-890.6507568359377	290.3132019042969	-847.8296508789065	-927.925231933594	376.0682067871094	-879.0417480468752	-984.232360839844	168.2782592773438	-853.1097412109377	-992.4368286132815	169.862045288086	-892.146179199219	-1012.821960449219	216.4495849609376	-940.5683593750002	-306.9187011718751	562.1475219726564	-568.8491210937501	-250.0365295410157	502.6099548339845	-572.8335571289064	-149.5499267578125	399.0995178222657	-626.4730834960939	-186.2091217041016	253.5896911621094	-712.5541992187501	-270.3473205566407	206.2002410888672	-655.8873901367189	-244.8533172607422	188.5927276611328	-696.5713500976564	-282.3389892578126	174.9446258544922	-740.2140502929689	-373.5373840332032	121.1375198364258	-692.6211547851564	-362.1754760742188	138.0333709716797	-770.9625244140627	-460.7189025878907	109.93310546875	-750.5463256835939	-258.1341857910157	59.55330276489259	-782.4504394531252	-253.1398162841797	57.63451766967775	-736.8482666015626	-293.1885070800782	45.09293365478516	-682.4898071289064	28.52606391906739	1225.984008789063	-628.3583374023439	-369.7780456542969	555.1215209960939	-552.5369262695314	-299.1698913574219	592.3637695312501	-589.0540771484376	
